<svg width="32" height="32" xmlns="http://www.w3.org/2000/svg">
 <g>
  <title>Layer 1</title>
  <path fill="#1e9624" stroke="null" opacity="NaN" d="m22.96808,21.76594c0,0 -21.86169,8.98936 -21.90425,8.97873c0.04256,0.01063 19.35114,0.01063 19.3085,0.05319c0.04256,0.01063 10.09575,-4.67022 10.05319,-4.68085c0.04256,0.01063 -7.45743,-4.35107 -7.45743,-4.35107l-0.00001,0z" id="svg_4"/>
  <path fill="#dbdb1e" stroke="null" opacity="NaN" d="m22.96808,21.76594c0,0 -21.86169,-12.18084 -21.90425,-12.19147c0.04256,0.01063 0.04256,-7.70232 0,-7.71276c0,0.01062 29.29786,16.60636 29.2553,16.59574c0.04256,0.01063 -7.35105,3.3085 -7.35105,3.3085l0,-0.00001z" id="svg_3"/>
  <line fill="none" x1="0.74468" y1="1.78192" x2="30.88298" y2="18.59297" id="svg_15" stroke="#000"/>
  <line fill="none" x1="0.74468" y1="1.78192" x2="30.88298" y2="18.59297" id="svg_17" stroke="#000"/>
  <line fill="none" x1="0.74468" y1="30.81919" x2="30.88298" y2="18.59297" id="svg_18" stroke="#000"/>
  <line fill="none" x1="0.74468" y1="9.35799" x2="30.88298" y2="26.16904" id="svg_19" stroke="#000"/>
  <line fill="none" x1="19.9236" y1="30.81919" x2="30.88298" y2="26.23436" id="svg_20" stroke="#000"/>
 </g>

</svg>